{"title":"Couple.in.a.Hole.2016.WEBRip.480p.x264.AAC-VYTO [P2PDL]","uid":14294834,"size":401003218,"categoryP":"video","categoryS":"movies","magnet":"?xt=urn:btih:8a06e007a53c9552ca1441d99eb82fdcaf788b0a&amp;dn=Couple.in.a.Hole.2016.WEBRip.480p.x264.AAC-VYTO+%5BP2PDL%5D&amp;tr=udp%3A%2F%2Ftracker.leechers-paradise.org%3A6969&amp;tr=udp%3A%2F%2Fzer0day.ch%3A1337&amp;tr=udp%3A%2F%2Fopen.demonii.com%3A1337&amp;tr=udp%3A%2F%2Ftracker.coppersurfer.tk%3A6969&amp;tr=udp%3A%2F%2Fexodus.desync.com%3A6969","seeders":1,"leechers":0,"uploader":"VYTOP2PDL","files":6,"time":1460438378,"description":"Couple.in.a.Hole.2016.WEBRip.480p.x264.AAC-VYTO\r\n\r\n\r\nGenre: Drama, Thriller  \nhttp://www.imdb.com/title/tt2818252/\r\n\r\n\r\nFormat                                   : MPEG-4\r\nFile size                                : 376 MiB\r\nDuration                                 : 1h 44mn\r\nOverall bit rate                         : 502 Kbps\r\n\r\nVideo\r\nFormat                                   : AVC\r\nBit rate                                 : 459 Kbps\r\nWidth                                    : 720 pixels\r\nHeight                                   : 304 pixels\r\nDisplay aspect ratio                     : 2.35:1\r\nFrame rate mode                          : Constant\r\nFrame rate                               : 24.000 fps\r\nBit depth                                : 8 bits\r\nStream size                              : 344 MiB (91%)\r\nWriting library                          : x264\r\n\r\nAudio\r\nFormat                                   : AAC\r\nBit rate                                 : 39.9 Kbps\r\nChannel(s)                               : 2 channels\r\nChannel positions                        : Front: L R\r\nSampling rate                            : 48.0 KHz \r\nStream size                              : 29.9 MiB (8%)\r\nLanguage                                 : English\r\n\r\nSubtitle                                 :  N/a\r\n\r\nScreen Shots: (Click links to view)\r\n \nhttps://ititli.com/XsN \nhttps://ititli.com/XsP \nhttps://ititli.com/Xsf \nhttps://ititli.com/Xsu \nhttps://ititli.com/Xsv \nhttps://ititli.com/XsR \nhttps://ititli.com/Xsy \nhttps://ititli.com/Xs3 \nhttps://ititli.com/XsE \nhttps://ititli.com/XsQ \nhttps://ititli.com/XsS \nhttps://ititli.com/XsZ\r\n\r\n----------------------------------------------------------------------------------------------------\r\n\r\n\r\nEncoder Notes: Looking For Early Access To Anything You Can Provide WEBDL, DVDScr, DVDR, BluRay,\r\nDirect Audio, Music Releases and Seedboxes. If You Got anything to offer please contact us.\r\n\r\nSupport us by donating BC - 1FgwdzPsd1y25Gea8wP1qni35uGCtmkRCD\r\n\r\nFind us and join us!","torrent":{"xt":"urn:btih:8a06e007a53c9552ca1441d99eb82fdcaf788b0a","amp;dn":"Couple.in.a.Hole.2016.WEBRip.480p.x264.AAC-VYTO+%5BP2PDL%5D","amp;tr":["udp%3A%2F%2Ftracker.leechers-paradise.org%3A6969","udp%3A%2F%2Fzer0day.ch%3A1337","udp%3A%2F%2Fopen.demonii.com%3A1337","udp%3A%2F%2Ftracker.coppersurfer.tk%3A6969","udp%3A%2F%2Fexodus.desync.com%3A6969"],"infoHash":"8a06e007a53c9552ca1441d99eb82fdcaf788b0a","infoHashBuffer":{"type":"Buffer","data":[138,6,224,7,165,60,149,82,202,20,65,217,158,184,47,220,175,120,139,10]},"announce":[],"urlList":[]}}